<svg width="900" height="700" viewBox="0 0 900 700" fill="none" xmlns="http://www.w3.org/2000/svg">
  <rect width="900" height="700" rx="28" fill="#1C263D"/>
  <rect x="32" y="32" width="836" height="636" rx="20" fill="#0D1B2B" stroke="#435B7B"/>
  <rect x="68" y="74" width="220" height="16" rx="8" fill="#435B7B"/>
  <rect x="634" y="70" width="194" height="28" rx="14" fill="#C9A84C"/>
  <rect x="68" y="148" width="360" height="86" rx="12" fill="#D8DCE0"/>
  <rect x="68" y="256" width="286" height="20" rx="10" fill="#435B7B"/>
  <rect x="68" y="292" width="238" height="20" rx="10" fill="#435B7B"/>
  <rect x="68" y="348" width="182" height="48" rx="24" fill="#C9A84C"/>
  <rect x="486" y="148" width="302" height="352" rx="18" fill="#1C263D" stroke="#435B7B"/>
  <rect x="518" y="186" width="238" height="138" rx="12" fill="#435B7B"/>
  <rect x="518" y="352" width="170" height="18" rx="9" fill="#D8DCE0"/>
  <rect x="518" y="384" width="214" height="18" rx="9" fill="#435B7B"/>
  <rect x="68" y="482" width="720" height="134" rx="18" fill="#1C263D" stroke="#435B7B"/>
  <rect x="100" y="520" width="154" height="18" rx="9" fill="#D8DCE0"/>
  <rect x="100" y="552" width="196" height="18" rx="9" fill="#435B7B"/>
  <rect x="350" y="520" width="154" height="18" rx="9" fill="#D8DCE0"/>
  <rect x="350" y="552" width="196" height="18" rx="9" fill="#435B7B"/>
  <rect x="600" y="520" width="154" height="18" rx="9" fill="#D8DCE0"/>
  <rect x="600" y="552" width="156" height="18" rx="9" fill="#435B7B"/>
</svg>
