<svg width="900" height="700" viewBox="0 0 900 700" fill="none" xmlns="http://www.w3.org/2000/svg">
  <rect width="900" height="700" rx="28" fill="#1C263D"/>
  <rect x="32" y="32" width="836" height="636" rx="20" fill="#0D1B2B" stroke="#435B7B"/>
  <rect x="68" y="72" width="140" height="18" rx="9" fill="#D8DCE0"/>
  <rect x="570" y="70" width="258" height="26" rx="13" fill="#435B7B"/>
  <rect x="68" y="148" width="760" height="220" rx="18" fill="#1C263D" stroke="#435B7B"/>
  <rect x="108" y="192" width="318" height="70" rx="12" fill="#D8DCE0"/>
  <rect x="108" y="286" width="226" height="18" rx="9" fill="#435B7B"/>
  <rect x="108" y="318" width="266" height="18" rx="9" fill="#435B7B"/>
  <rect x="108" y="404" width="220" height="170" rx="18" fill="#1C263D" stroke="#435B7B"/>
  <rect x="340" y="404" width="220" height="170" rx="18" fill="#1C263D" stroke="#435B7B"/>
  <rect x="572" y="404" width="220" height="170" rx="18" fill="#1C263D" stroke="#435B7B"/>
  <rect x="138" y="436" width="160" height="78" rx="12" fill="#435B7B"/>
  <rect x="370" y="436" width="160" height="78" rx="12" fill="#C9A84C"/>
  <rect x="602" y="436" width="160" height="78" rx="12" fill="#435B7B"/>
  <rect x="138" y="532" width="112" height="16" rx="8" fill="#D8DCE0"/>
  <rect x="370" y="532" width="112" height="16" rx="8" fill="#0D1B2B"/>
  <rect x="602" y="532" width="112" height="16" rx="8" fill="#D8DCE0"/>
</svg>
